<svg width="64" height="64" viewBox="0 0 64 64" fill="none" xmlns="http://www.w3.org/2000/svg">
<rect x="31" y="11" width="2" height="3" fill="black"/>
<rect x="31" y="50" width="2" height="3" fill="black"/>
<rect x="50" y="31" width="3" height="2" fill="black"/>
<rect x="11" y="31" width="3" height="2" fill="black"/>
<circle cx="32" cy="32" r="2" fill="black"/>
<mask id="mask0_620_824" style="mask-type:alpha" maskUnits="userSpaceOnUse" x="7" y="7" width="50" height="50">
<path fill-rule="evenodd" clip-rule="evenodd" d="M50.3707 48.9565C54.4858 44.5004 57 38.5438 57 32C57 27.6911 55.9099 23.6368 53.9904 20.0979L51.3908 21.5987C53.0555 24.6958 54 28.2376 54 32C54 37.7154 51.8206 42.9217 48.2475 46.8333L50.3707 48.9565ZM49.6777 49.6777C46.7967 52.5587 43.2158 54.7398 39.2119 55.9441L38.4614 53.0359C41.9384 51.9692 45.0487 50.064 47.5564 47.5564L49.6777 49.6777ZM32 57C34.1576 57 36.2513 56.7267 38.2485 56.2128L37.4986 53.3073C35.7411 53.7595 33.8987 54 32 54C22.0398 54 13.6256 47.3811 10.9158 38.3018L8.00206 39.0303C11.0392 49.4148 20.6338 57 32 57ZM7.74071 38.0648C7.25684 36.1231 7 34.0915 7 32C7 18.1929 18.1929 7 32 7C41.141 7 49.1362 11.906 53.4961 19.2285L50.8974 20.7289C47.0564 14.3029 40.0307 10 32 10C19.8497 10 10 19.8497 10 32C10 33.8406 10.226 35.6283 10.6518 37.337L7.74071 38.0648Z" fill="black"/>
</mask>
<g mask="url(#mask0_620_824)">
<path d="M8.5 15L27 5H46L54 19.5L32 32L7.5 38.5L3.5 33L8.5 15Z" fill="#980000"/>
<path d="M32 32L54 19.5L57.5 25L59 34.5L57 43L50.5 49.5L32 32Z" fill="#027C00"/>
<path d="M7.5 38.5L32 32L39 57L24 58.5L10.5 50L7.5 38.5Z" fill="#0300A6"/>
<path d="M32 32L50.5 49.5L46 53.5L39 57L32 32Z" fill="#9B00A9"/>
</g>
</svg>
